<svg width="30" height="27" viewBox="0 0 30 27" fill="none" xmlns="http://www.w3.org/2000/svg">
<path fill-rule="evenodd" clip-rule="evenodd" d="M11.2367 2.16023C12.9092 -0.720077 17.091 -0.720077 18.7621 2.16023L29.4122 20.5193C31.0832 23.3996 28.9923 27 25.6488 27H4.34994C1.00647 27 -1.08302 23.3996 0.58799 20.5193L11.2353 2.16023H11.2367ZM15.0001 9.71672C15.2881 9.71672 15.5644 9.83051 15.768 10.0331C15.9717 10.2356 16.0861 10.5104 16.0861 10.7968V16.1974C16.0861 16.4839 15.9717 16.7586 15.768 16.9612C15.5644 17.1637 15.2881 17.2775 15.0001 17.2775C14.7121 17.2775 14.4358 17.1637 14.2322 16.9612C14.0285 16.7586 13.9141 16.4839 13.9141 16.1974V10.7968C13.9141 10.5104 14.0285 10.2356 14.2322 10.0331C14.4358 9.83051 14.7121 9.71672 15.0001 9.71672ZM15.0001 21.598C15.2881 21.598 15.5644 21.4842 15.768 21.2816C15.9717 21.0791 16.0861 20.8043 16.0861 20.5179C16.0861 20.2314 15.9717 19.9567 15.768 19.7541C15.5644 19.5516 15.2881 19.4378 15.0001 19.4378C14.7121 19.4378 14.4358 19.5516 14.2322 19.7541C14.0285 19.9567 13.9141 20.2314 13.9141 20.5179C13.9141 20.8043 14.0285 21.0791 14.2322 21.2816C14.4358 21.4842 14.7121 21.598 15.0001 21.598Z" fill="#FFA023"/>
</svg>
