<svg width="167" height="34" viewBox="0 0 167 34" fill="none" xmlns="http://www.w3.org/2000/svg">
<g clip-path="url(#clip0_124_20)">
<path d="M21.4051 33.8928V21.1989H6.77826L0 14.405V6.76833L6.77826 0H10.6006V12.0297H26.1447L32.6936 18.8236V27.1244L25.9408 33.8928H21.4051ZM21.4051 9.50117V6.10426H12.3844V0H25.9154L31.7763 5.89994V9.50117H21.4051ZM5.68252 33.8928L0 27.1244V23.7275H11.2631V27.7629H19.6213V33.8928H5.68252ZM58.1147 33.8928L56.6876 30.1893H45.6284L47.9728 23.472H54.0884L45.0423 0H56.0251L69.5052 33.8928H58.1147ZM31.7406 33.8928L43.8191 1.53245L48.8137 14.9925L42.6215 33.8928H31.7406ZM109.033 23.7275V17.1635H117.493V6.76833H109.033V0H121.901L128.68 6.76833V16.9336L123.43 22.195L129.827 33.8928H117.799L113.009 23.7275H109.033ZM95.9859 33.8928V0H107.25V33.8928H95.9859ZM154.967 33.8928L153.54 30.1893H142.481L144.826 23.472H150.941L141.895 0H152.878L166.358 33.8928H154.967ZM128.593 33.8928L140.671 1.53245L145.667 14.9925L139.475 33.8928H128.593Z" fill="white"/>
<path d="M73.3427 33.8928V23.1145L61.8757 0H72.935L84.6313 23.9063V33.8928H73.3427ZM85.3448 21.531L79.8662 10.3951L85.4213 0H96.251L85.3448 21.531Z" fill="#FFFF3D"/>
</g>
<defs>
<clipPath id="clip0_124_20">
<rect width="167" height="34" fill="white"/>
</clipPath>
</defs>
</svg>
